<svg width="60" height="75" viewBox="0 0 60 75" fill="none" xmlns="http://www.w3.org/2000/svg">
<rect width="60" height="60" rx="7" fill="#4540D9"/>
<path d="M31.8574 43.4793L28.3926 43.4793V19.7205L17.7506 30.3624L15.2758 27.8876L30.125 13.0383L44.9743 27.8876L42.4994 30.3624L31.8574 19.7205L31.8574 43.4793Z" fill="#F1F1FB"/>
<path d="M2.94 73H6.01C6.74333 73 7.31333 72.8067 7.72 72.42C8.13333 72.0333 8.34 71.5167 8.34 70.87C8.34 70.4567 8.23 70.0833 8.01 69.75C7.79 69.4167 7.49 69.17 7.11 69.01C7.40333 68.8567 7.63 68.6433 7.79 68.37C7.95667 68.09 8.04 67.7733 8.04 67.42C8.04 67.0533 7.95333 66.73 7.78 66.45C7.61333 66.17 7.37667 65.95 7.07 65.79C6.77 65.63 6.41667 65.55 6.01 65.55H2.94V73ZM3.59 68.77V66.15H5.95C6.39667 66.15 6.74667 66.2633 7 66.49C7.26 66.7167 7.39 67.03 7.39 67.43C7.39 67.83 7.25667 68.1533 6.99 68.4C6.73 68.6467 6.38333 68.77 5.95 68.77H3.59ZM3.59 72.4V69.36H6.02C6.52667 69.36 6.93 69.5 7.23 69.78C7.53667 70.0533 7.69 70.42 7.69 70.88C7.69 71.3467 7.53333 71.7167 7.22 71.99C6.91333 72.2633 6.49667 72.4 5.97 72.4H3.59ZM11.2934 73.12C11.74 73.12 12.1367 73.02 12.4834 72.82C12.8367 72.6133 13.0934 72.3667 13.2534 72.08V73H13.8534V69.33C13.8534 68.9833 13.7667 68.68 13.5934 68.42C13.4267 68.1533 13.1967 67.9467 12.9034 67.8C12.61 67.6467 12.27 67.57 11.8834 67.57C11.5767 67.57 11.2867 67.6233 11.0134 67.73C10.74 67.8367 10.5 67.98 10.2934 68.16C10.0867 68.34 9.93336 68.5367 9.83336 68.75L10.3734 69.04C10.5134 68.7667 10.7167 68.55 10.9834 68.39C11.25 68.2233 11.55 68.14 11.8834 68.14C12.29 68.14 12.62 68.25 12.8734 68.47C13.1267 68.69 13.2534 68.9767 13.2534 69.33V69.63L11.2634 69.96C10.65 70.0667 10.21 70.2733 9.94336 70.58C9.68336 70.8867 9.55336 71.2333 9.55336 71.62C9.55336 71.9133 9.63003 72.1733 9.78336 72.4C9.93669 72.6267 10.1434 72.8033 10.4034 72.93C10.67 73.0567 10.9667 73.12 11.2934 73.12ZM10.1834 71.6C10.1834 71.3333 10.2767 71.1 10.4634 70.9C10.65 70.7 10.97 70.5633 11.4234 70.49L13.2534 70.19V70.65C13.2534 70.9967 13.1734 71.3167 13.0134 71.61C12.8534 71.9033 12.63 72.1367 12.3434 72.31C12.0567 72.4833 11.72 72.57 11.3334 72.57C11.0067 72.57 10.7334 72.48 10.5134 72.3C10.2934 72.12 10.1834 71.8867 10.1834 71.6ZM17.9258 73.12C18.2524 73.12 18.5591 73.0633 18.8458 72.95C19.1324 72.83 19.3858 72.6733 19.6058 72.48C19.8258 72.28 19.9924 72.0567 20.1058 71.81L19.5758 71.52C19.4158 71.8333 19.1924 72.08 18.9058 72.26C18.6258 72.44 18.2991 72.53 17.9258 72.53C17.5458 72.53 17.2024 72.4367 16.8958 72.25C16.5958 72.0633 16.3558 71.8067 16.1758 71.48C15.9958 71.1467 15.9058 70.7667 15.9058 70.34C15.9058 69.9067 15.9958 69.5267 16.1758 69.2C16.3558 68.8733 16.5958 68.6167 16.8958 68.43C17.2024 68.2433 17.5458 68.15 17.9258 68.15C18.2991 68.15 18.6258 68.24 18.9058 68.42C19.1924 68.6 19.4158 68.8433 19.5758 69.15L20.1058 68.87C19.9324 68.4967 19.6491 68.1867 19.2558 67.94C18.8624 67.6933 18.4191 67.57 17.9258 67.57C17.4191 67.57 16.9658 67.69 16.5658 67.93C16.1724 68.17 15.8591 68.5 15.6258 68.92C15.3991 69.3333 15.2858 69.8067 15.2858 70.34C15.2858 70.8667 15.3991 71.34 15.6258 71.76C15.8591 72.18 16.1724 72.5133 16.5658 72.76C16.9658 73 17.4191 73.12 17.9258 73.12ZM21.5409 73H22.1409V71.35L23.2009 70.26L25.2409 73H25.9909L23.6509 69.83L25.7909 67.69H24.9709L22.1409 70.5V65.5H21.5409V73ZM30.6096 73.06C30.6629 73.06 30.7363 73.0567 30.8296 73.05C30.9229 73.0433 31.0063 73.03 31.0796 73.01V72.46C31.0329 72.4667 30.9696 72.4733 30.8896 72.48C30.8163 72.4867 30.7529 72.49 30.6996 72.49C30.4596 72.49 30.2763 72.4467 30.1496 72.36C30.0229 72.2733 29.9363 72.16 29.8896 72.02C29.8496 71.88 29.8296 71.7367 29.8296 71.59V68.26H30.9896V67.69H29.8296V66.45H29.2296V67.02C29.2296 67.2267 29.1729 67.39 29.0596 67.51C28.9529 67.63 28.8029 67.69 28.6096 67.69H28.2296V68.26H29.2296V71.59C29.2296 72.07 29.3463 72.4367 29.5796 72.69C29.8196 72.9367 30.1629 73.06 30.6096 73.06ZM34.7922 73.12C35.2922 73.12 35.7455 73 36.1522 72.76C36.5589 72.52 36.8789 72.19 37.1122 71.77C37.3522 71.35 37.4722 70.8733 37.4722 70.34C37.4722 69.8067 37.3555 69.3333 37.1222 68.92C36.8889 68.5 36.5689 68.17 36.1622 67.93C35.7622 67.69 35.3055 67.57 34.7922 67.57C34.2789 67.57 33.8189 67.69 33.4122 67.93C33.0055 68.17 32.6855 68.5 32.4522 68.92C32.2189 69.3333 32.1022 69.8067 32.1022 70.34C32.1022 70.8667 32.2189 71.34 32.4522 71.76C32.6922 72.18 33.0155 72.5133 33.4222 72.76C33.8289 73 34.2855 73.12 34.7922 73.12ZM34.7922 72.53C34.4122 72.53 34.0655 72.4333 33.7522 72.24C33.4455 72.0467 33.1989 71.7867 33.0122 71.46C32.8322 71.1267 32.7422 70.7533 32.7422 70.34C32.7422 69.9267 32.8322 69.5567 33.0122 69.23C33.1922 68.8967 33.4355 68.6367 33.7422 68.45C34.0555 68.2567 34.4055 68.16 34.7922 68.16C35.1789 68.16 35.5255 68.2567 35.8322 68.45C36.1389 68.6367 36.3822 68.8967 36.5622 69.23C36.7422 69.5567 36.8322 69.9267 36.8322 70.34C36.8322 70.7533 36.7422 71.1267 36.5622 71.46C36.3822 71.7867 36.1355 72.0467 35.8222 72.24C35.5155 72.4333 35.1722 72.53 34.7922 72.53ZM42.0332 73H42.6832V66.15H44.7532V65.55H39.9532V66.15H42.0332V73ZM47.507 73.12C48.007 73.12 48.4604 73 48.867 72.76C49.2737 72.52 49.5937 72.19 49.827 71.77C50.067 71.35 50.187 70.8733 50.187 70.34C50.187 69.8067 50.0704 69.3333 49.837 68.92C49.6037 68.5 49.2837 68.17 48.877 67.93C48.477 67.69 48.0204 67.57 47.507 67.57C46.9937 67.57 46.5337 67.69 46.127 67.93C45.7204 68.17 45.4004 68.5 45.167 68.92C44.9337 69.3333 44.817 69.8067 44.817 70.34C44.817 70.8667 44.9337 71.34 45.167 71.76C45.407 72.18 45.7304 72.5133 46.137 72.76C46.5437 73 47.0004 73.12 47.507 73.12ZM47.507 72.53C47.127 72.53 46.7804 72.4333 46.467 72.24C46.1604 72.0467 45.9137 71.7867 45.727 71.46C45.547 71.1267 45.457 70.7533 45.457 70.34C45.457 69.9267 45.547 69.5567 45.727 69.23C45.907 68.8967 46.1504 68.6367 46.457 68.45C46.7704 68.2567 47.1204 68.16 47.507 68.16C47.8937 68.16 48.2404 68.2567 48.547 68.45C48.8537 68.6367 49.097 68.8967 49.277 69.23C49.457 69.5567 49.547 69.9267 49.547 70.34C49.547 70.7533 49.457 71.1267 49.277 71.46C49.097 71.7867 48.8504 72.0467 48.537 72.24C48.2304 72.4333 47.887 72.53 47.507 72.53ZM51.6288 75H52.2288V71.99C52.4288 72.3367 52.7088 72.6133 53.0688 72.82C53.4355 73.02 53.8422 73.12 54.2888 73.12C54.7888 73.12 55.2355 73 55.6288 72.76C56.0222 72.5133 56.3322 72.18 56.5588 71.76C56.7855 71.34 56.8988 70.8667 56.8988 70.34C56.8988 69.8133 56.7855 69.3433 56.5588 68.93C56.3322 68.51 56.0222 68.18 55.6288 67.94C55.2355 67.6933 54.7888 67.57 54.2888 67.57C53.8422 67.57 53.4388 67.67 53.0788 67.87C52.7255 68.0633 52.4422 68.33 52.2288 68.67V67.69H51.6288V75ZM54.2688 72.52C53.8888 72.52 53.5455 72.4267 53.2388 72.24C52.9322 72.0467 52.6888 71.7867 52.5088 71.46C52.3288 71.1267 52.2388 70.7533 52.2388 70.34C52.2388 69.9267 52.3288 69.5567 52.5088 69.23C52.6888 68.9033 52.9322 68.6467 53.2388 68.46C53.5455 68.2667 53.8888 68.17 54.2688 68.17C54.6488 68.17 54.9888 68.2667 55.2888 68.46C55.5888 68.6467 55.8255 68.9033 55.9988 69.23C56.1722 69.5567 56.2588 69.9267 56.2588 70.34C56.2588 70.7533 56.1722 71.1267 55.9988 71.46C55.8255 71.7867 55.5888 72.0467 55.2888 72.24C54.9955 72.4267 54.6555 72.52 54.2688 72.52Z" fill="black"/>
</svg>
