<svg width="413" height="126" viewBox="0 0 413 126" fill="none" xmlns="http://www.w3.org/2000/svg">
<path d="M11.9 29.336C13.132 29.336 14.3267 29.1307 15.484 28.72C16.6413 28.2907 17.6773 27.6653 18.592 26.844C19.5253 26.004 20.2627 24.9773 20.804 23.764C21.3453 22.532 21.616 21.104 21.616 19.48V17.38H11.816V20.6H17.808V20.684C17.808 21.748 17.5373 22.672 16.996 23.456C16.4547 24.2213 15.736 24.8187 14.84 25.248C13.944 25.6587 12.964 25.864 11.9 25.864C10.5933 25.864 9.436 25.556 8.428 24.94C7.42 24.324 6.62667 23.4747 6.048 22.392C5.488 21.2907 5.208 20.012 5.208 18.556C5.208 17.1 5.488 15.8307 6.048 14.748C6.608 13.6467 7.38267 12.7973 8.372 12.2C9.36133 11.584 10.5093 11.276 11.816 11.276C13.1413 11.276 14.2707 11.612 15.204 12.284C16.1373 12.956 16.8093 13.8333 17.22 14.916L20.608 13.292C20.2533 12.3027 19.6653 11.3973 18.844 10.576C18.0227 9.736 17.0147 9.064 15.82 8.56C14.644 8.056 13.3093 7.804 11.816 7.804C10.3227 7.804 8.94133 8.07467 7.672 8.616C6.40267 9.13867 5.30133 9.88533 4.368 10.856C3.43467 11.808 2.70667 12.9467 2.184 14.272C1.66133 15.5787 1.4 17.0067 1.4 18.556C1.4 20.1053 1.66133 21.5427 2.184 22.868C2.72533 24.1747 3.472 25.3133 4.424 26.284C5.376 27.2547 6.48667 28.0107 7.756 28.552C9.02533 29.0747 10.4067 29.336 11.9 29.336ZM31.5453 29.336C33.0946 29.336 34.4479 28.9907 35.6053 28.3C36.7813 27.5907 37.6026 26.6947 38.0693 25.612L35.1013 24.156C34.7653 24.7347 34.2986 25.2107 33.7013 25.584C33.1226 25.9387 32.4133 26.116 31.5733 26.116C30.4719 26.116 29.5479 25.78 28.8013 25.108C28.0546 24.436 27.6253 23.54 27.5133 22.42H38.4893C38.5639 22.2147 38.6106 21.9813 38.6293 21.72C38.6666 21.44 38.6853 21.16 38.6853 20.88C38.6853 19.5173 38.3959 18.276 37.8173 17.156C37.2386 16.036 36.3986 15.14 35.2973 14.468C34.1959 13.7773 32.8519 13.432 31.2653 13.432C29.8466 13.432 28.5586 13.7773 27.4013 14.468C26.2626 15.1587 25.3573 16.1013 24.6853 17.296C24.0319 18.472 23.7053 19.8253 23.7053 21.356C23.7053 22.8307 24.0319 24.1747 24.6853 25.388C25.3386 26.6013 26.2533 27.5627 27.4293 28.272C28.6053 28.9813 29.9773 29.336 31.5453 29.336ZM31.2653 16.456C32.2359 16.456 33.0386 16.7547 33.6733 17.352C34.3266 17.9307 34.6906 18.6867 34.7653 19.62H27.5973C27.8026 18.612 28.2319 17.8373 28.8853 17.296C29.5573 16.736 30.3506 16.456 31.2653 16.456ZM48.4098 29.168C49.0258 29.168 49.6325 29.1213 50.2298 29.028V25.864C49.8751 25.92 49.5485 25.948 49.2498 25.948C48.3538 25.948 47.7005 25.7427 47.2898 25.332C46.8791 24.9213 46.6738 24.3333 46.6738 23.568V17.044H50.1738V13.768H46.6738V10.296H43.0058V11.472C43.0058 12.2187 42.8005 12.788 42.3898 13.18C41.9791 13.572 41.4005 13.768 40.6538 13.768H40.3738V17.044H43.0058V23.764C43.0058 25.4627 43.4725 26.788 44.4058 27.74C45.3578 28.692 46.6925 29.168 48.4098 29.168ZM68.5928 29.336C70.1421 29.336 71.5794 29.0653 72.9048 28.524C74.2301 27.9827 75.3874 27.2267 76.3768 26.256C77.3661 25.2853 78.1314 24.1467 78.6728 22.84C79.2328 21.5147 79.5128 20.0867 79.5128 18.556C79.5128 17.0067 79.2328 15.5787 78.6728 14.272C78.1314 12.9653 77.3661 11.836 76.3768 10.884C75.3874 9.91333 74.2301 9.15733 72.9048 8.616C71.5794 8.07467 70.1421 7.804 68.5928 7.804C67.0434 7.804 65.6061 8.07467 64.2808 8.616C62.9554 9.15733 61.7981 9.91333 60.8088 10.884C59.8381 11.836 59.0728 12.9653 58.5128 14.272C57.9714 15.5787 57.7008 17.0067 57.7008 18.556C57.7008 20.0867 57.9714 21.5147 58.5128 22.84C59.0728 24.1467 59.8474 25.2853 60.8368 26.256C61.8261 27.2267 62.9834 27.9827 64.3088 28.524C65.6341 29.0653 67.0621 29.336 68.5928 29.336ZM68.5928 25.864C67.2488 25.864 66.0354 25.5467 64.9528 24.912C63.8888 24.2773 63.0488 23.4093 62.4328 22.308C61.8168 21.2067 61.5088 19.956 61.5088 18.556C61.5088 17.156 61.8168 15.9147 62.4328 14.832C63.0488 13.7307 63.8888 12.8627 64.9528 12.228C66.0354 11.5933 67.2488 11.276 68.5928 11.276C69.9554 11.276 71.1688 11.5933 72.2328 12.228C73.2968 12.8627 74.1368 13.7307 74.7528 14.832C75.3688 15.9147 75.6768 17.156 75.6768 18.556C75.6768 19.956 75.3688 21.2067 74.7528 22.308C74.1368 23.4093 73.2968 24.2773 72.2328 24.912C71.1688 25.5467 69.9554 25.864 68.5928 25.864ZM88.0228 29.336C88.9748 29.336 89.8148 29.1587 90.5428 28.804C91.2895 28.4307 91.8775 27.8893 92.3068 27.18V29H95.7788V13.768H92.1108V22.7C92.1108 23.708 91.8215 24.5107 91.2428 25.108C90.6641 25.6867 89.9268 25.976 89.0308 25.976C88.1161 25.976 87.3695 25.6867 86.7908 25.108C86.2308 24.5293 85.9508 23.7547 85.9508 22.784V13.768H82.2828V23.092C82.2828 24.9587 82.7868 26.4707 83.7948 27.628C84.8215 28.7667 86.2308 29.336 88.0228 29.336ZM99.1885 29H102.856V20.516C102.856 19.3587 103.174 18.4627 103.808 17.828C104.462 17.1747 105.302 16.848 106.328 16.848H107.644V13.6H106.748C105.815 13.6 104.994 13.768 104.284 14.104C103.575 14.44 103.024 15.0467 102.632 15.924V13.768H99.1885V29ZM113.238 29H117.354L118.866 24.52H126.93L128.414 29H132.558L125.362 8.14H120.434L113.238 29ZM119.958 21.16L122.898 12.368L125.838 21.16H119.958ZM134.571 34.6H138.239V27.544C138.799 28.1227 139.481 28.5707 140.283 28.888C141.086 29.1867 141.954 29.336 142.887 29.336C144.362 29.336 145.678 28.9907 146.835 28.3C147.993 27.5907 148.907 26.6387 149.579 25.444C150.251 24.2307 150.587 22.8773 150.587 21.384C150.587 19.8907 150.251 18.5467 149.579 17.352C148.907 16.1387 147.993 15.1867 146.835 14.496C145.678 13.7867 144.371 13.432 142.915 13.432C141.87 13.432 140.927 13.6187 140.087 13.992C139.247 14.3653 138.557 14.888 138.015 15.56V13.768H134.571V34.6ZM142.467 25.976C141.665 25.976 140.937 25.78 140.283 25.388C139.649 24.996 139.145 24.4547 138.771 23.764C138.417 23.0733 138.239 22.28 138.239 21.384C138.239 20.488 138.417 19.6947 138.771 19.004C139.145 18.3133 139.649 17.772 140.283 17.38C140.937 16.988 141.665 16.792 142.467 16.792C143.307 16.792 144.045 16.9973 144.679 17.408C145.333 17.8 145.846 18.3413 146.219 19.032C146.593 19.7227 146.779 20.5067 146.779 21.384C146.779 22.2613 146.593 23.0547 146.219 23.764C145.846 24.4547 145.333 24.996 144.679 25.388C144.045 25.78 143.307 25.976 142.467 25.976ZM153.384 34.6H157.052V27.544C157.612 28.1227 158.293 28.5707 159.096 28.888C159.898 29.1867 160.766 29.336 161.7 29.336C163.174 29.336 164.49 28.9907 165.648 28.3C166.805 27.5907 167.72 26.6387 168.392 25.444C169.064 24.2307 169.4 22.8773 169.4 21.384C169.4 19.8907 169.064 18.5467 168.392 17.352C167.72 16.1387 166.805 15.1867 165.648 14.496C164.49 13.7867 163.184 13.432 161.728 13.432C160.682 13.432 159.74 13.6187 158.9 13.992C158.06 14.3653 157.369 14.888 156.828 15.56V13.768H153.384V34.6ZM161.28 25.976C160.477 25.976 159.749 25.78 159.096 25.388C158.461 24.996 157.957 24.4547 157.584 23.764C157.229 23.0733 157.052 22.28 157.052 21.384C157.052 20.488 157.229 19.6947 157.584 19.004C157.957 18.3133 158.461 17.772 159.096 17.38C159.749 16.988 160.477 16.792 161.28 16.792C162.12 16.792 162.857 16.9973 163.492 17.408C164.145 17.8 164.658 18.3413 165.032 19.032C165.405 19.7227 165.592 20.5067 165.592 21.384C165.592 22.2613 165.405 23.0547 165.032 23.764C164.658 24.4547 164.145 24.996 163.492 25.388C162.857 25.78 162.12 25.976 161.28 25.976Z" fill="black"/>
<path d="M192.593 124.778H7.40741C3.33519 124.778 0 121.526 0 117.556V74.2223C0 70.2519 3.33519 67.0001 7.40741 67.0001H192.593C196.665 67.0001 200 70.2519 200 74.2223V117.556C200 121.526 196.665 124.778 192.593 124.778Z" fill="black"/>
<path d="M192.593 68.1574C196.022 68.1574 198.813 70.8784 198.813 74.2223V117.556C198.813 120.899 196.022 123.62 192.593 123.62H7.40741C3.97778 123.62 1.18704 120.899 1.18704 117.556V74.2223C1.18704 70.8784 3.97778 68.1574 7.40741 68.1574H192.593ZM192.593 67.0001H7.40741C3.33519 67.0001 0 70.2519 0 74.2223V117.556C0 121.526 3.33519 124.778 7.40741 124.778H192.593C196.665 124.778 200 121.526 200 117.556V74.2223C200 70.2519 196.665 67.0001 192.593 67.0001Z" fill="#A6A6A6"/>
<path d="M15.4593 77.8893C15.0241 78.3334 14.7722 79.025 14.7722 79.9205V111.864C14.7722 112.76 15.0241 113.451 15.4593 113.896L15.5667 113.993L33.9259 96.1001V95.6776L15.5667 77.7846L15.4593 77.8893Z" fill="url(#paint0_linear_401_785)"/>
<path d="M40.0387 102.067L33.9258 96.1V95.6775L40.0462 89.7102L40.1832 89.7878L47.4313 93.8088C49.4999 94.9499 49.4999 96.8277 47.4313 97.976L40.1832 101.99L40.0387 102.067V102.067Z" fill="url(#paint1_linear_401_785)"/>
<path d="M40.1833 101.99L33.9259 95.889L15.4592 113.896C16.1463 114.6 17.2666 114.685 18.5407 113.981L40.1833 101.99" fill="url(#paint2_linear_401_785)"/>
<path d="M40.1833 89.7882L18.5407 77.7975C17.2666 77.1006 16.1463 77.1854 15.4592 77.8896L33.9259 95.8892L40.1833 89.7882Z" fill="url(#paint3_linear_401_785)"/>
<path d="M70.2481 81.7964C70.2481 83.0025 69.8778 83.9685 69.1481 84.6889C68.3092 85.543 67.2166 85.9727 65.8778 85.9727C64.5981 85.9727 63.5055 85.5357 62.6092 84.6745C61.7111 83.8006 61.2629 82.7281 61.2629 81.4443C61.2629 80.1606 61.7111 79.0881 62.6092 78.2214C63.5055 77.353 64.5981 76.916 65.8778 76.916C66.5148 76.916 67.1222 77.0442 67.7018 77.2825C68.2796 77.5227 68.75 77.8477 69.0907 78.2485L68.3166 79.0105C67.7222 78.3262 66.9129 77.9885 65.8778 77.9885C64.9444 77.9885 64.1352 78.3063 63.4481 78.9473C62.7685 79.59 62.4278 80.4224 62.4278 81.4443C62.4278 82.4663 62.7685 83.3059 63.4481 83.9487C64.1352 84.5824 64.9444 84.9074 65.8778 84.9074C66.8685 84.9074 67.7018 84.5824 68.3592 83.9414C68.7926 83.5171 69.0389 82.9321 69.1037 82.1846H65.8778V81.141H70.1815C70.2333 81.3667 70.2481 81.5852 70.2481 81.7964V81.7964Z" fill="white" stroke="white" stroke-width="0.16" stroke-miterlimit="10"/>
<path d="M77.076 78.1782H73.0334V80.9227H76.6778V81.9663H73.0334V84.7107H77.076V85.7742H71.8889V77.1147H77.076V78.1782Z" fill="white" stroke="white" stroke-width="0.16" stroke-miterlimit="10"/>
<path d="M81.8943 85.7742H80.7499V78.1782H78.2703V77.1147H84.3758V78.1782H81.8943V85.7742V85.7742Z" fill="white" stroke="white" stroke-width="0.16" stroke-miterlimit="10"/>
<path d="M88.7944 85.7742V77.1147H89.937V85.7742H88.7944Z" fill="white" stroke="white" stroke-width="0.16" stroke-miterlimit="10"/>
<path d="M95.0017 85.7742H93.8666V78.1782H91.3777V77.1147H97.4906V78.1782H95.0017V85.7742Z" fill="white" stroke="white" stroke-width="0.16" stroke-miterlimit="10"/>
<path d="M109.05 84.66C108.174 85.5357 107.089 85.9727 105.794 85.9727C104.493 85.9727 103.407 85.5357 102.531 84.66C101.657 83.7862 101.222 82.7137 101.222 81.4443C101.222 80.175 101.657 79.1025 102.531 78.2287C103.407 77.353 104.493 76.916 105.794 76.916C107.081 76.916 108.167 77.353 109.043 78.2359C109.924 79.117 110.359 80.1823 110.359 81.4443C110.359 82.7137 109.924 83.7862 109.05 84.66ZM103.378 83.9342C104.037 84.5824 104.839 84.9074 105.794 84.9074C106.743 84.9074 107.552 84.5824 108.204 83.9342C108.861 83.286 109.194 82.4537 109.194 81.4443C109.194 80.435 108.861 79.6027 108.204 78.9545C107.552 78.3063 106.743 77.9813 105.794 77.9813C104.839 77.9813 104.037 78.3063 103.378 78.9545C102.72 79.6027 102.387 80.435 102.387 81.4443C102.387 82.4537 102.72 83.286 103.378 83.9342V83.9342Z" fill="white" stroke="white" stroke-width="0.16" stroke-miterlimit="10"/>
<path d="M111.965 85.7742V77.1147H113.354L117.672 83.8495H117.722L117.672 82.1847V77.1147H118.815V85.7742H117.622L113.1 78.7072H113.05L113.1 80.3792V85.7742H111.965V85.7742Z" fill="white" stroke="white" stroke-width="0.16" stroke-miterlimit="10"/>
<path d="M100.941 98.4204C97.4611 98.4204 94.6186 101.002 94.6186 104.565C94.6186 108.098 97.4611 110.707 100.941 110.707C104.428 110.707 107.27 108.098 107.27 104.565C107.27 101.002 104.428 98.4204 100.941 98.4204ZM100.941 108.288C99.0315 108.288 97.3889 106.751 97.3889 104.565C97.3889 102.349 99.0315 100.84 100.941 100.84C102.85 100.84 104.5 102.349 104.5 104.565C104.5 106.751 102.85 108.288 100.941 108.288V108.288ZM87.1463 98.4204C83.6593 98.4204 80.8241 101.002 80.8241 104.565C80.8241 108.098 83.6593 110.707 87.1463 110.707C90.6315 110.707 93.4686 108.098 93.4686 104.565C93.4686 101.002 90.6315 98.4204 87.1463 98.4204ZM87.1463 108.288C85.2352 108.288 83.5871 106.751 83.5871 104.565C83.5871 102.349 85.2352 100.84 87.1463 100.84C89.0556 100.84 90.6982 102.349 90.6982 104.565C90.6982 106.751 89.0556 108.288 87.1463 108.288ZM70.7315 100.304V102.914H77.126C76.9389 104.373 76.4389 105.446 75.6723 106.193C74.7389 107.096 73.2852 108.098 70.7315 108.098C66.7963 108.098 63.7149 105.002 63.7149 101.165C63.7149 97.328 66.7963 94.2315 70.7315 94.2315C72.8593 94.2315 74.4075 95.0422 75.55 96.093L77.4371 94.2531C75.8389 92.7654 73.713 91.6225 70.7315 91.6225C65.3352 91.6225 60.8 95.9034 60.8 101.165C60.8 106.426 65.3352 110.707 70.7315 110.707C73.6482 110.707 75.8389 109.776 77.5612 108.028C79.326 106.307 79.876 103.888 79.876 101.934C79.876 101.327 79.8241 100.769 79.7315 100.304H70.7315ZM137.854 102.328C137.333 100.954 135.728 98.4204 132.457 98.4204C129.217 98.4204 126.519 100.91 126.519 104.565C126.519 108.006 129.189 110.707 132.769 110.707C135.663 110.707 137.333 108.986 138.02 107.984L135.872 106.589C135.156 107.611 134.18 108.288 132.769 108.288C131.367 108.288 130.361 107.661 129.717 106.426L138.144 103.026L137.854 102.328V102.328ZM129.261 104.373C129.189 102.004 131.148 100.791 132.552 100.791C133.652 100.791 134.585 101.327 134.896 102.095L129.261 104.373V104.373ZM122.411 110.333H125.182V92.2779H122.411V110.333ZM117.874 99.789H117.782C117.159 99.0704 115.972 98.4204 114.469 98.4204C111.313 98.4204 108.428 101.121 108.428 104.585C108.428 108.028 111.313 110.707 114.469 110.707C115.972 110.707 117.159 110.052 117.782 109.311H117.874V110.193C117.874 112.542 116.587 113.804 114.511 113.804C112.819 113.804 111.769 112.612 111.335 111.61L108.926 112.59C109.62 114.219 111.459 116.223 114.511 116.223C117.759 116.223 120.5 114.36 120.5 109.826V98.7941H117.874V99.789V99.789ZM114.706 108.288C112.796 108.288 111.198 106.73 111.198 104.585C111.198 102.42 112.796 100.84 114.706 100.84C116.587 100.84 118.07 102.42 118.07 104.585C118.07 106.73 116.587 108.288 114.706 108.288V108.288ZM150.824 92.2779H144.198V110.333H146.961V103.492H150.824C153.893 103.492 156.902 101.327 156.902 97.8841C156.902 94.4427 153.885 92.2779 150.824 92.2779V92.2779ZM150.896 100.981H146.961V94.7894H150.896C152.959 94.7894 154.137 96.4595 154.137 97.8841C154.137 99.2816 152.959 100.981 150.896 100.981ZM167.976 98.3861C165.98 98.3861 163.904 99.2455 163.05 101.15L165.502 102.152C166.03 101.15 167 100.825 168.026 100.825C169.459 100.825 170.913 101.665 170.935 103.147V103.337C170.435 103.055 169.365 102.638 168.048 102.638C165.407 102.638 162.717 104.056 162.717 106.701C162.717 109.12 164.88 110.678 167.311 110.678C169.17 110.678 170.196 109.86 170.841 108.909H170.935V110.305H173.604V103.378C173.604 100.177 171.152 98.3861 167.976 98.3861ZM167.643 108.281C166.739 108.281 165.48 107.844 165.48 106.751C165.48 105.354 167.05 104.817 168.409 104.817C169.626 104.817 170.196 105.079 170.935 105.424C170.719 107.096 169.243 108.281 167.643 108.281V108.281ZM183.326 98.7815L180.15 106.609H180.056L176.772 98.7815H173.793L178.726 109.72L175.911 115.806H178.798L186.4 98.7815H183.326V98.7815ZM158.42 110.333H161.191V92.2779H158.42V110.333Z" fill="white"/>
<path d="M411.883 118.37C411.883 121.464 409.325 123.971 406.16 123.971H218.848C215.684 123.971 213.117 121.464 213.117 118.37V73.7035C213.117 70.6105 215.684 68.0952 218.848 68.0952H406.158C409.325 68.0952 411.882 70.6105 411.882 73.7035L411.883 118.37Z" fill="black"/>
<path d="M405.556 68.1634C409.002 68.1634 411.807 70.898 411.807 74.2586V117.809C411.807 121.169 409.002 123.904 405.556 123.904H219.444C215.998 123.904 213.193 121.169 213.193 117.809V74.2586C213.193 70.898 215.998 68.1634 219.444 68.1634H405.556ZM405.556 67.0002H219.444C215.352 67.0002 212 70.2683 212 74.2586V117.809C212 121.799 215.352 125.067 219.444 125.067H405.556C409.648 125.067 413 121.799 413 117.809V74.2586C413 70.2683 409.648 67.0002 405.556 67.0002Z" fill="#A6A6A6"/>
<path d="M256.857 95.7197C256.814 91.0409 260.786 88.7647 260.968 88.6588C258.718 85.4607 255.231 85.0238 254.006 84.9889C251.077 84.6884 248.237 86.6976 246.745 86.6976C245.223 86.6976 242.926 85.018 240.45 85.0673C237.263 85.1152 234.283 86.9139 232.648 89.7069C229.274 95.4017 231.79 103.771 235.023 108.374C236.64 110.628 238.529 113.145 241.002 113.057C243.421 112.96 244.325 111.553 247.245 111.553C250.138 111.553 250.986 113.057 253.509 113C256.105 112.96 257.74 110.736 259.3 108.461C261.169 105.877 261.919 103.332 261.949 103.202C261.888 103.181 256.906 101.327 256.857 95.7197Z" fill="white"/>
<path d="M252.093 81.9608C253.394 80.3741 254.284 78.2155 254.037 76.0249C252.154 76.1062 249.798 77.2951 248.442 78.8469C247.242 80.2144 246.17 82.4558 246.447 84.5636C248.563 84.7175 250.735 83.5228 252.093 81.9608Z" fill="white"/>
<path d="M285.03 81.5296C285.03 83.2382 284.504 84.5244 283.455 85.3881C282.482 86.1851 281.101 86.5843 279.311 86.5843C278.424 86.5843 277.664 86.5466 277.029 86.4711V77.1354C277.858 77.0048 278.751 76.938 279.716 76.938C281.421 76.938 282.706 77.2995 283.572 78.0224C284.543 78.8397 285.03 80.0083 285.03 81.5296ZM283.385 81.5717C283.385 80.4641 283.084 79.6149 282.482 79.0226C281.881 78.4318 281.002 78.1356 279.846 78.1356C279.354 78.1356 278.936 78.1675 278.589 78.2343V85.3315C278.781 85.3606 279.132 85.3736 279.643 85.3736C280.837 85.3736 281.759 85.0499 282.408 84.4025C283.057 83.755 283.385 82.8114 283.385 81.5717Z" fill="white"/>
<path d="M293.753 83.0219C293.753 84.0744 293.445 84.9366 292.829 85.6131C292.183 86.3085 291.326 86.6554 290.257 86.6554C289.227 86.6554 288.407 86.323 287.795 85.6552C287.184 84.9889 286.879 84.1484 286.879 83.1351C286.879 82.0754 287.193 81.2059 287.825 80.5308C288.456 79.8558 289.305 79.5176 290.374 79.5176C291.404 79.5176 292.232 79.85 292.859 80.5163C293.454 81.1638 293.753 81.9999 293.753 83.0219ZM292.135 83.0713C292.135 82.4398 291.995 81.8983 291.717 81.4468C291.389 80.901 290.923 80.6281 290.317 80.6281C289.69 80.6281 289.214 80.901 288.886 81.4468C288.606 81.8983 288.468 82.4485 288.468 83.0988C288.468 83.7303 288.608 84.2718 288.886 84.7233C289.224 85.2691 289.695 85.542 290.302 85.542C290.898 85.542 291.365 85.2647 291.702 84.7087C291.991 84.2486 292.135 83.7027 292.135 83.0713Z" fill="white"/>
<path d="M305.45 79.6572L303.254 86.5004H301.825L300.915 83.5288C300.684 82.787 300.497 82.0496 300.351 81.3179H300.322C300.187 82.0699 299.999 82.8059 299.758 83.5288L298.792 86.5004H297.346L295.281 79.6572H296.885L297.678 82.9104C297.87 83.6798 298.028 84.4129 298.155 85.1068H298.183C298.299 84.5348 298.491 83.8061 298.762 82.9249L299.758 79.6587H301.03L301.984 82.8552C302.215 83.6348 302.402 84.3853 302.547 85.1082H302.59C302.696 84.4042 302.855 83.6537 303.066 82.8552L303.918 79.6587H305.45V79.6572Z" fill="white"/>
<path d="M313.539 86.5005H311.979V82.581C311.979 81.3733 311.508 80.7694 310.564 80.7694C310.101 80.7694 309.728 80.9349 309.437 81.2673C309.15 81.5997 309.004 81.9917 309.004 82.4402V86.4991H307.444V81.6128C307.444 81.0118 307.424 80.36 307.387 79.6545H308.758L308.831 80.7244H308.875C309.056 80.3919 309.327 80.1176 309.683 79.8984C310.106 79.6429 310.579 79.5137 311.098 79.5137C311.753 79.5137 312.298 79.7198 312.731 80.1335C313.27 80.6402 313.539 81.3965 313.539 82.401V86.5005V86.5005Z" fill="white"/>
<path d="M317.842 86.5002H316.283V76.5171H317.842V86.5002Z" fill="white"/>
<path d="M327.029 83.0219C327.029 84.0744 326.721 84.9366 326.104 85.6131C325.458 86.3085 324.6 86.6554 323.533 86.6554C322.501 86.6554 321.681 86.323 321.07 85.6552C320.46 84.9889 320.155 84.1484 320.155 83.1351C320.155 82.0754 320.469 81.2059 321.1 80.5308C321.731 79.8558 322.58 79.5176 323.647 79.5176C324.679 79.5176 325.506 79.85 326.134 80.5163C326.729 81.1638 327.029 81.9999 327.029 83.0219ZM325.409 83.0713C325.409 82.4398 325.269 81.8983 324.99 81.4468C324.664 80.901 324.197 80.6281 323.592 80.6281C322.964 80.6281 322.488 80.901 322.162 81.4468C321.882 81.8983 321.743 82.4485 321.743 83.0988C321.743 83.7303 321.883 84.2718 322.162 84.7233C322.5 85.2691 322.97 85.542 323.578 85.542C324.173 85.542 324.639 85.2647 324.976 84.7087C325.266 84.2486 325.409 83.7027 325.409 83.0713Z" fill="white"/>
<path d="M334.58 86.5001H333.179L333.063 85.7118H333.02C332.54 86.3404 331.857 86.6554 330.97 86.6554C330.307 86.6554 329.771 86.4478 329.368 86.0356C329.001 85.661 328.818 85.195 328.818 84.642C328.818 83.8058 329.175 83.1685 329.895 82.7272C330.612 82.2859 331.622 82.0696 332.921 82.0798V81.952C332.921 81.0505 332.436 80.6005 331.464 80.6005C330.772 80.6005 330.161 80.7704 329.634 81.1072L329.317 80.1084C329.969 79.715 330.775 79.5176 331.724 79.5176C333.559 79.5176 334.479 80.4612 334.479 82.3483V84.8684C334.479 85.5522 334.513 86.0965 334.58 86.5001ZM332.96 84.1484V83.093C331.239 83.064 330.378 83.5242 330.378 84.4721C330.378 84.8292 330.477 85.0963 330.678 85.2749C330.879 85.4534 331.135 85.542 331.44 85.542C331.782 85.542 332.103 85.436 332.394 85.2255C332.688 85.0136 332.868 84.745 332.935 84.4155C332.951 84.3415 332.96 84.2515 332.96 84.1484Z" fill="white"/>
<path d="M343.447 86.5002H342.062L341.989 85.4013H341.946C341.504 86.2374 340.75 86.6555 339.692 86.6555C338.846 86.6555 338.142 86.3318 337.583 85.6844C337.025 85.0369 336.747 84.1964 336.747 83.1643C336.747 82.0566 337.049 81.1595 337.656 80.4743C338.244 79.8356 338.965 79.5162 339.823 79.5162C340.765 79.5162 341.425 79.8254 341.8 80.4453H341.83V76.5171H343.391V84.6566C343.391 85.3229 343.409 85.937 343.447 86.5002ZM341.83 83.6143V82.4733C341.83 82.2759 341.815 82.1162 341.786 81.9942C341.699 81.6284 341.51 81.3207 341.222 81.0724C340.932 80.8242 340.582 80.6993 340.178 80.6993C339.596 80.6993 339.141 80.9243 338.806 81.3758C338.474 81.8273 338.305 82.4036 338.305 83.1077C338.305 83.7841 338.465 84.3329 338.785 84.7553C339.123 85.2053 339.578 85.4303 340.149 85.4303C340.661 85.4303 341.07 85.2431 341.381 84.8671C341.682 84.5201 341.83 84.102 341.83 83.6143Z" fill="white"/>
<path d="M356.791 83.0219C356.791 84.0744 356.483 84.9366 355.867 85.6131C355.221 86.3085 354.366 86.6554 353.296 86.6554C352.267 86.6554 351.446 86.323 350.833 85.6552C350.222 84.9889 349.917 84.1484 349.917 83.1351C349.917 82.0754 350.231 81.2059 350.863 80.5308C351.494 79.8558 352.343 79.5176 353.413 79.5176C354.442 79.5176 355.271 79.85 355.897 80.5163C356.492 81.1638 356.791 81.9999 356.791 83.0219ZM355.175 83.0713C355.175 82.4398 355.035 81.8983 354.756 81.4468C354.427 80.901 353.963 80.6281 353.355 80.6281C352.73 80.6281 352.253 80.901 351.924 81.4468C351.644 81.8983 351.506 82.4485 351.506 83.0988C351.506 83.7303 351.646 84.2718 351.924 84.7233C352.262 85.2691 352.733 85.542 353.34 85.542C353.936 85.542 354.405 85.2647 354.741 84.7087C355.029 84.2486 355.175 83.7027 355.175 83.0713Z" fill="white"/>
<path d="M365.181 86.5005H363.622V82.581C363.622 81.3733 363.152 80.7694 362.206 80.7694C361.743 80.7694 361.37 80.9349 361.081 81.2673C360.792 81.5997 360.647 81.9917 360.647 82.4402V86.4991H359.086V81.6128C359.086 81.0118 359.068 80.36 359.031 79.6545H360.4L360.473 80.7244H360.516C360.7 80.3919 360.971 80.1176 361.325 79.8984C361.749 79.6429 362.221 79.5137 362.741 79.5137C363.394 79.5137 363.939 79.7198 364.373 80.1335C364.913 80.6402 365.181 81.3965 365.181 82.401V86.5005V86.5005Z" fill="white"/>
<path d="M375.683 80.7969H373.964V84.1213C373.964 84.9661 374.27 85.3886 374.874 85.3886C375.154 85.3886 375.386 85.3653 375.569 85.3174L375.61 86.4715C375.301 86.5847 374.896 86.6413 374.398 86.6413C373.781 86.6413 373.302 86.4584 372.955 86.0926C372.607 85.7268 372.434 85.1113 372.434 84.2476V80.7969H371.408V79.6574H372.434V78.4031L373.963 77.9531V79.6559H375.681V80.7969H375.683Z" fill="white"/>
<path d="M383.943 86.5002H382.381V82.6097C382.381 81.3831 381.911 80.769 380.968 80.769C380.245 80.769 379.75 81.1247 379.479 81.836C379.433 81.9855 379.406 82.1684 379.406 82.3833V86.4988H377.847V76.5171H379.406V80.6413H379.436C379.927 79.8908 380.632 79.5162 381.544 79.5162C382.191 79.5162 382.725 79.7224 383.149 80.1361C383.678 80.6514 383.943 81.4179 383.943 82.4312V86.5002V86.5002Z" fill="white"/>
<path d="M392.464 82.7552C392.464 83.0281 392.443 83.2574 392.405 83.4447H387.726C387.747 84.1212 387.97 84.6365 388.403 84.9936C388.799 85.313 389.31 85.4727 389.935 85.4727C390.628 85.4727 391.259 85.3653 391.828 85.149L392.072 86.2058C391.406 86.4874 390.623 86.6282 389.717 86.6282C388.63 86.6282 387.774 86.3161 387.154 85.6919C386.532 85.0677 386.224 84.2301 386.224 83.1791C386.224 82.1469 386.511 81.2875 387.09 80.6023C387.695 79.8707 388.512 79.5049 389.544 79.5049C390.553 79.5049 391.32 79.8707 391.838 80.6023C392.257 81.183 392.464 81.9016 392.464 82.7552ZM390.975 82.3618C390.987 81.9103 390.884 81.5212 390.672 81.1932C390.401 80.7707 389.989 80.5588 389.431 80.5588C388.921 80.5588 388.506 80.7649 388.189 81.1787C387.93 81.5082 387.777 81.9016 387.726 82.3618H390.975Z" fill="white"/>
<path d="M291.871 112.733H288.49L286.638 107.059H280.2L278.436 112.733H275.144L281.522 93.4146H285.462L291.871 112.733ZM286.08 104.678L284.405 99.6335C284.228 99.1182 283.895 97.9046 283.406 95.9942H283.346C283.151 96.8158 282.837 98.0294 282.405 99.6335L280.76 104.678H286.08V104.678Z" fill="white"/>
<path d="M308.274 105.597C308.274 107.966 307.618 109.839 306.305 111.214C305.128 112.438 303.668 113.049 301.924 113.049C300.042 113.049 298.69 112.39 297.867 111.072H297.808V118.41H294.633V103.389C294.633 101.9 294.593 100.371 294.516 98.8036H297.307L297.484 101.012H297.544C298.603 99.3479 300.209 98.5176 302.365 98.5176C304.05 98.5176 305.457 99.1665 306.583 100.466C307.712 101.766 308.274 103.476 308.274 105.597ZM305.041 105.711C305.041 104.355 304.728 103.237 304.1 102.357C303.413 101.44 302.492 100.981 301.336 100.981C300.553 100.981 299.841 101.237 299.206 101.74C298.568 102.248 298.151 102.912 297.956 103.733C297.858 104.117 297.809 104.43 297.809 104.677V107C297.809 108.013 298.128 108.868 298.765 109.566C299.402 110.264 300.23 110.613 301.248 110.613C302.444 110.613 303.375 110.163 304.04 109.266C304.707 108.367 305.041 107.183 305.041 105.711Z" fill="white"/>
<path d="M324.708 105.597C324.708 107.966 324.051 109.839 322.736 111.214C321.562 112.438 320.101 113.049 318.357 113.049C316.475 113.049 315.124 112.39 314.302 111.072H314.242V118.41H311.068V103.389C311.068 101.9 311.028 100.371 310.95 98.8036H313.742L313.919 101.012H313.979C315.036 99.3479 316.642 98.5176 318.8 98.5176C320.484 98.5176 321.891 99.1665 323.019 100.466C324.143 101.766 324.708 103.476 324.708 105.597ZM321.474 105.711C321.474 104.355 321.16 103.237 320.531 102.357C319.845 101.44 318.926 100.981 317.769 100.981C316.985 100.981 316.274 101.237 315.637 101.74C315 102.248 314.585 102.912 314.39 103.733C314.293 104.117 314.242 104.43 314.242 104.677V107C314.242 108.013 314.561 108.868 315.195 109.566C315.832 110.263 316.66 110.613 317.681 110.613C318.877 110.613 319.808 110.163 320.473 109.266C321.14 108.367 321.474 107.183 321.474 105.711Z" fill="white"/>
<path d="M343.08 107.316C343.08 108.959 342.495 110.296 341.32 111.328C340.029 112.456 338.232 113.019 335.923 113.019C333.791 113.019 332.082 112.619 330.788 111.816L331.523 109.236C332.917 110.058 334.446 110.47 336.112 110.47C337.308 110.47 338.238 110.206 338.907 109.68C339.572 109.155 339.904 108.449 339.904 107.57C339.904 106.786 339.63 106.125 339.081 105.59C338.535 105.054 337.622 104.556 336.347 104.096C332.878 102.834 331.145 100.986 331.145 98.5562C331.145 96.9681 331.753 95.666 332.969 94.6527C334.181 93.638 335.798 93.1313 337.82 93.1313C339.623 93.1313 341.121 93.4376 342.316 94.0488L341.523 96.5718C340.406 95.9795 339.143 95.6834 337.731 95.6834C336.614 95.6834 335.741 95.9519 335.116 96.4862C334.587 96.9637 334.322 97.5459 334.322 98.2354C334.322 98.999 334.625 99.6305 335.232 100.127C335.761 100.586 336.721 101.082 338.115 101.618C339.819 102.287 341.072 103.069 341.877 103.967C342.68 104.861 343.08 105.98 343.08 107.316Z" fill="white"/>
<path d="M353.575 101.126H350.076V107.889C350.076 109.609 350.693 110.469 351.929 110.469C352.496 110.469 352.966 110.421 353.339 110.325L353.426 112.675C352.801 112.903 351.978 113.018 350.958 113.018C349.704 113.018 348.725 112.645 348.017 111.9C347.313 111.154 346.959 109.902 346.959 108.144V101.123H344.874V98.8001H346.959V96.2495L350.076 95.332V98.8001H353.575V101.126Z" fill="white"/>
<path d="M369.362 105.653C369.362 107.795 368.734 109.553 367.48 110.927C366.165 112.343 364.42 113.048 362.245 113.048C360.149 113.048 358.48 112.37 357.235 111.015C355.99 109.659 355.368 107.947 355.368 105.884C355.368 103.726 356.008 101.958 357.293 100.583C358.575 99.2066 360.305 98.5186 362.48 98.5186C364.577 98.5186 366.264 99.1965 367.537 100.554C368.755 101.87 369.362 103.57 369.362 105.653ZM366.069 105.754C366.069 104.469 365.787 103.367 365.217 102.448C364.551 101.336 363.6 100.782 362.367 100.782C361.091 100.782 360.122 101.338 359.456 102.448C358.886 103.369 358.605 104.488 358.605 105.812C358.605 107.096 358.886 108.198 359.456 109.116C360.143 110.228 361.102 110.782 362.339 110.782C363.551 110.782 364.502 110.216 365.189 109.087C365.774 108.15 366.069 107.037 366.069 105.754Z" fill="white"/>
<path d="M379.68 101.525C379.366 101.469 379.031 101.44 378.68 101.44C377.563 101.44 376.699 101.851 376.092 102.674C375.563 103.4 375.298 104.317 375.298 105.425V112.734H372.125L372.155 103.19C372.155 101.585 372.115 100.123 372.036 98.805H374.801L374.917 101.47H375.005C375.34 100.554 375.869 99.8168 376.592 99.2637C377.299 98.7658 378.063 98.5176 378.887 98.5176C379.18 98.5176 379.445 98.5379 379.68 98.5742V101.525Z" fill="white"/>
<path d="M393.877 105.109C393.877 105.664 393.839 106.131 393.761 106.513H384.238C384.275 107.889 384.735 108.942 385.619 109.668C386.422 110.316 387.46 110.642 388.734 110.642C390.144 110.642 391.43 110.422 392.587 109.983L393.085 112.131C391.733 112.706 390.137 112.992 388.295 112.992C386.079 112.992 384.34 112.356 383.075 111.086C381.812 109.816 381.179 108.11 381.179 105.97C381.179 103.87 381.768 102.12 382.945 100.725C384.178 99.2359 385.844 98.4912 387.94 98.4912C390 98.4912 391.558 99.2359 392.617 100.725C393.455 101.908 393.877 103.372 393.877 105.109ZM390.85 104.307C390.871 103.389 390.664 102.597 390.233 101.927C389.684 101.066 388.84 100.637 387.704 100.637C386.666 100.637 385.822 101.056 385.177 101.898C384.649 102.567 384.334 103.37 384.238 104.305H390.85V104.307Z" fill="white"/>
<defs>
<linearGradient id="paint0_linear_401_785" x1="32.2958" y1="112.197" x2="8.06236" y2="87.3422" gradientUnits="userSpaceOnUse">
<stop stop-color="#00A0FF"/>
<stop offset="0.0066" stop-color="#00A1FF"/>
<stop offset="0.2601" stop-color="#00BEFF"/>
<stop offset="0.5122" stop-color="#00D2FF"/>
<stop offset="0.7604" stop-color="#00DFFF"/>
<stop offset="1" stop-color="#00E3FF"/>
</linearGradient>
<linearGradient id="paint1_linear_401_785" x1="50.1249" y1="95.8868" x2="14.2776" y2="95.8868" gradientUnits="userSpaceOnUse">
<stop stop-color="#FFE000"/>
<stop offset="0.4087" stop-color="#FFBD00"/>
<stop offset="0.7754" stop-color="#FFA500"/>
<stop offset="1" stop-color="#FF9C00"/>
</linearGradient>
<linearGradient id="paint2_linear_401_785" x1="36.7807" y1="92.5724" x2="3.91815" y2="58.8672" gradientUnits="userSpaceOnUse">
<stop stop-color="#FF3A44"/>
<stop offset="1" stop-color="#C31162"/>
</linearGradient>
<linearGradient id="paint3_linear_401_785" x1="10.8108" y1="124.524" x2="25.4854" y2="109.473" gradientUnits="userSpaceOnUse">
<stop stop-color="#32A071"/>
<stop offset="0.0685" stop-color="#2DA771"/>
<stop offset="0.4762" stop-color="#15CF74"/>
<stop offset="0.8009" stop-color="#06E775"/>
<stop offset="1" stop-color="#00F076"/>
</linearGradient>
</defs>
</svg>
